<svg width="236" height="73" viewBox="0 0 236 73" fill="none" xmlns="http://www.w3.org/2000/svg">
<g filter="url(#filter0_d_1851_86)">
<path d="M232.879 25.3532C232.879 25.1437 232.876 24.9355 232.871 24.7259C232.868 24.6232 232.864 24.5217 232.86 24.419C232.856 24.3149 232.853 24.2121 232.848 24.108C232.841 23.9692 232.832 23.8317 232.822 23.6942C232.818 23.6288 232.814 23.5648 232.81 23.4994C232.798 23.3379 232.785 23.1764 232.77 23.0149C232.766 22.9762 232.763 22.9361 232.759 22.8974C232.742 22.7173 232.722 22.5384 232.701 22.3596C232.699 22.3396 232.697 22.3195 232.695 22.3008C232.672 22.1073 232.645 21.9151 232.618 21.7229C232.618 21.7176 232.617 21.7136 232.615 21.7083C232.439 20.4897 232.174 19.2992 231.83 18.142C231.828 18.1354 231.826 18.1287 231.824 18.122C231.769 17.9392 231.713 17.7563 231.653 17.5761C231.647 17.5535 231.639 17.5308 231.631 17.5081C231.577 17.3439 231.522 17.1798 231.465 17.0183C231.45 16.9755 231.434 16.9328 231.419 16.8888C231.368 16.7473 231.317 16.6058 231.265 16.4644C231.24 16.399 231.215 16.3322 231.189 16.2668C231.144 16.1507 231.098 16.0333 231.052 15.9172C231.016 15.8264 230.978 15.737 230.94 15.6476C230.903 15.5568 230.865 15.466 230.826 15.3753C230.778 15.2618 230.727 15.1484 230.675 15.035C230.646 14.9696 230.618 14.9042 230.587 14.8401C230.525 14.704 230.46 14.5692 230.396 14.4344C230.375 14.393 230.355 14.3503 230.335 14.3089C230.26 14.1554 230.183 14.0019 230.105 13.8484C230.093 13.8258 230.082 13.8031 230.07 13.7817C229.983 13.6135 229.894 13.4454 229.802 13.2785C229.798 13.2719 229.796 13.2652 229.792 13.2585C229.212 12.1988 228.55 11.1724 227.807 10.1875C227.803 10.1835 227.801 10.1781 227.797 10.1741C227.68 10.0193 227.561 9.86581 227.44 9.71366C227.427 9.69764 227.413 9.68029 227.401 9.66428C227.289 9.52414 227.176 9.384 227.062 9.24653C227.037 9.21583 227.01 9.18513 226.984 9.1531C226.881 9.03031 226.777 8.90619 226.671 8.78474C226.626 8.73402 226.582 8.68464 226.538 8.63392C226.447 8.53115 226.356 8.42838 226.263 8.32695C226.192 8.24954 226.119 8.17213 226.048 8.09605C225.978 8.02265 225.911 7.9479 225.839 7.8745C225.549 7.57153 225.25 7.27524 224.945 6.98695C224.871 6.91755 224.796 6.84948 224.722 6.78008C224.644 6.708 224.567 6.63593 224.489 6.56653C224.387 6.47444 224.283 6.38502 224.18 6.29426C224.128 6.25022 224.079 6.20617 224.028 6.16213C223.905 6.05669 223.78 5.95392 223.656 5.85115C223.625 5.82579 223.594 5.7991 223.562 5.77374C223.422 5.65896 223.282 5.54819 223.141 5.43741C223.125 5.42406 223.107 5.41071 223.091 5.3987C222.938 5.27858 222.783 5.16113 222.627 5.04502C222.623 5.04101 222.618 5.03834 222.614 5.03434C221.621 4.29761 220.585 3.64095 219.518 3.06572C219.511 3.06171 219.505 3.05904 219.498 3.05504C219.33 2.96428 219.16 2.87619 218.991 2.78944C218.968 2.77743 218.945 2.76675 218.924 2.75474C218.769 2.67733 218.616 2.59992 218.459 2.52651C218.418 2.50649 218.375 2.48647 218.332 2.46645C218.196 2.40239 218.06 2.33833 217.923 2.27693C217.857 2.24757 217.791 2.21821 217.726 2.18884C217.612 2.13813 217.498 2.08874 217.383 2.03936C217.292 2.00066 217.2 1.96329 217.109 1.92592C217.019 1.88854 216.927 1.85117 216.837 1.81514C216.72 1.76843 216.603 1.72305 216.485 1.679C216.419 1.65364 216.353 1.62829 216.285 1.60426C216.144 1.55221 216.002 1.50016 215.858 1.45078C215.815 1.4361 215.772 1.42008 215.727 1.4054C215.563 1.34934 215.399 1.29329 215.233 1.2399C215.211 1.23189 215.188 1.22522 215.165 1.21721C214.982 1.15849 214.799 1.10243 214.613 1.04771C214.607 1.04637 214.601 1.0437 214.594 1.04237C213.429 0.699362 212.228 0.437769 211 0.261594C210.995 0.261594 210.99 0.260259 210.985 0.258924C210.791 0.230896 210.598 0.205538 210.403 0.182849C210.382 0.180179 210.362 0.178845 210.343 0.176175C210.163 0.154821 209.983 0.136136 209.801 0.118785C209.762 0.114781 209.722 0.112112 209.683 0.108108C209.52 0.0934264 209.357 0.0787451 209.195 0.0680678C209.129 0.0627292 209.064 0.0600599 208.998 0.0560559C208.86 0.0467132 208.72 0.0373706 208.581 0.0306973C208.476 0.0253587 208.373 0.0226894 208.268 0.0186854C208.164 0.0146814 208.062 0.0106774 207.958 0.00800809C207.747 0.00266945 207.537 1.22987e-07 207.326 1.2286e-07L28.3622 1.33343e-07C14.2463 -0.00133454 2.80469 11.35 2.80469 25.3545C2.80469 39.3578 14.2463 50.7104 28.3622 50.7104L197.36 50.7104C198.24 50.7104 198.953 51.4178 198.953 52.2907L198.953 65.7013C198.953 67.1094 200.668 67.8141 201.672 66.8185L225.393 43.2844C225.542 43.1362 225.69 42.9854 225.835 42.8346C225.905 42.7612 225.974 42.6865 226.044 42.613C226.117 42.5356 226.189 42.4596 226.259 42.3821C226.352 42.2807 226.442 42.1779 226.534 42.0752C226.578 42.0245 226.622 41.9751 226.667 41.9244C226.773 41.8029 226.876 41.6788 226.98 41.556C227.006 41.5253 227.033 41.4946 227.058 41.4626C227.174 41.3238 227.285 41.185 227.397 41.0448C227.411 41.0288 227.424 41.0115 227.436 40.9954C227.557 40.8433 227.676 40.6898 227.793 40.535C227.797 40.531 227.799 40.5256 227.803 40.5216C228.546 39.5367 229.208 38.509 229.788 37.4506C229.792 37.4439 229.794 37.4372 229.798 37.4306C229.89 37.2637 229.979 37.0956 230.066 36.9274C230.078 36.9047 230.089 36.882 230.101 36.8607C230.179 36.7072 230.257 36.5537 230.331 36.4002C230.351 36.3588 230.371 36.3161 230.392 36.2747C230.456 36.1399 230.521 36.0051 230.583 35.869C230.612 35.8036 230.642 35.7395 230.671 35.6741C230.723 35.5607 230.772 35.4473 230.822 35.3338C230.861 35.243 230.899 35.1523 230.936 35.0615C230.974 34.9721 231.012 34.8814 231.048 34.7919C231.095 34.6758 231.141 34.5597 231.185 34.4423C231.211 34.3769 231.236 34.3115 231.261 34.2447C231.313 34.1046 231.366 33.9631 231.415 33.8203C231.43 33.7776 231.446 33.7349 231.461 33.6908C231.518 33.528 231.573 33.3652 231.627 33.201C231.635 33.1783 231.641 33.1556 231.649 33.133C231.709 32.9514 231.765 32.7699 231.82 32.5871C231.822 32.5804 231.824 32.5737 231.826 32.5671C232.171 31.4112 232.435 30.2207 232.611 29.0008C232.611 28.9955 232.613 28.9915 232.614 28.9862C232.642 28.794 232.668 28.6018 232.691 28.4083C232.693 28.3882 232.695 28.3682 232.697 28.3495C232.719 28.1707 232.738 27.9918 232.755 27.8117C232.759 27.773 232.762 27.7329 232.766 27.6942C232.781 27.5327 232.796 27.3712 232.806 27.2097C232.812 27.1443 232.814 27.0803 232.818 27.0149C232.828 26.8774 232.837 26.7386 232.844 26.6011C232.849 26.497 232.852 26.3943 232.856 26.2901C232.86 26.1874 232.864 26.0859 232.867 25.9832C232.872 25.7736 232.875 25.5654 232.875 25.3559L232.879 25.3532Z" fill="white"/>
</g>
<defs>
<filter id="filter0_d_1851_86" x="0.00116038" y="0" width="235.685" height="72.8922" filterUnits="userSpaceOnUse" color-interpolation-filters="sRGB">
<feFlood flood-opacity="0" result="BackgroundImageFix"/>
<feColorMatrix in="SourceAlpha" type="matrix" values="0 0 0 0 0 0 0 0 0 0 0 0 0 0 0 0 0 0 127 0" result="hardAlpha"/>
<feOffset dy="2.80353"/>
<feGaussianBlur stdDeviation="1.40176"/>
<feComposite in2="hardAlpha" operator="out"/>
<feColorMatrix type="matrix" values="0 0 0 0 0 0 0 0 0 0 0 0 0 0 0 0 0 0 0.25 0"/>
<feBlend mode="normal" in2="BackgroundImageFix" result="effect1_dropShadow_1851_86"/>
<feBlend mode="normal" in="SourceGraphic" in2="effect1_dropShadow_1851_86" result="shape"/>
</filter>
</defs>
</svg>
